<?xml version="1.0" standalone="no"?>
<!DOCTYPE svg PUBLIC "-//W3C//DTD SVG 20010904//EN"
 "http://www.w3.org/TR/2001/REC-SVG-20010904/DTD/svg10.dtd">
<svg version="1.0" xmlns="http://www.w3.org/2000/svg"
 width="522.000000pt" height="522.000000pt" viewBox="0 0 522.000000 522.000000"
 preserveAspectRatio="xMidYMid meet">
<metadata>
Created by potrace 1.11, written by Peter Selinger 2001-2013
</metadata>
<g transform="translate(0.000000,522.000000) scale(0.100000,-0.100000)"
fill="#000000" stroke="none">
<path d="M2375 5204 c-385 -48 -715 -158 -1039 -347 -63 -36 -264 -172 -276
-186 -3 -3 -30 -26 -60 -51 -307 -249 -569 -599 -737 -985 -98 -224 -181 -560
-201 -810 -11 -148 -5 -463 12 -550 2 -11 9 -54 16 -95 40 -254 123 -504 246
-748 316 -625 878 -1103 1538 -1308 175 -55 305 -84 431 -99 32 -4 68 -9 80
-12 37 -9 449 -10 535 -2 419 41 759 144 1065 323 564 328 940 850 1105 1531
6 28 14 61 16 75 2 14 7 39 11 55 7 35 9 50 18 125 4 30 8 57 10 60 8 12 18
216 18 355 1 204 -14 397 -39 518 l-6 27 -1229 0 -1228 0 2 -502 2 -503 702 0
c387 0 703 -2 703 -5 0 -3 -5 -23 -11 -45 -5 -22 -11 -47 -13 -56 -3 -9 -11
-37 -20 -63 -106 -312 -332 -567 -636 -716 -114 -55 -290 -113 -388 -126 -26
-3 -50 -8 -53 -10 -15 -9 -186 -19 -309 -18 -612 6 -1172 398 -1411 989 -7 17
-13 35 -15 40 -1 6 -12 37 -24 70 -26 75 -57 220 -66 316 -54 553 189 1103
631 1429 111 82 137 97 250 153 202 99 394 146 626 152 365 10 698 -105 967
-333 l64 -55 371 371 372 372 -35 33 c-184 174 -482 360 -745 465 -90 36 -270
96 -321 107 -137 29 -218 45 -259 50 -27 3 -66 8 -85 11 -73 12 -486 11 -585
-2z"/>
</g>
</svg>
